<svg width="170" height="42" viewBox="0 0 170 42" fill="none" xmlns="http://www.w3.org/2000/svg">
<path d="M14.8796 33V9.72727H24.0614C25.8266 9.72727 27.3304 10.0644 28.5728 10.7386C29.8152 11.4053 30.7622 12.3333 31.4137 13.5227C32.0728 14.7045 32.4023 16.0682 32.4023 17.6136C32.4023 19.1591 32.069 20.5227 31.4023 21.7045C30.7357 22.8864 29.7698 23.8068 28.5046 24.4659C27.247 25.125 25.7243 25.4545 23.9364 25.4545H18.0841V21.5114H23.141C24.0879 21.5114 24.8682 21.3485 25.4819 21.0227C26.1031 20.6894 26.5652 20.2311 26.8682 19.6477C27.1788 19.0568 27.3341 18.3788 27.3341 17.6136C27.3341 16.8409 27.1788 16.1667 26.8682 15.5909C26.5652 15.0076 26.1031 14.5568 25.4819 14.2386C24.8607 13.9129 24.0728 13.75 23.1182 13.75H19.8001V33H14.8796ZM34.8674 33V15.5455H39.5606V18.5909H39.7424C40.0606 17.5076 40.5947 16.6894 41.3447 16.1364C42.0947 15.5758 42.9584 15.2955 43.9356 15.2955C44.178 15.2955 44.4394 15.3106 44.7197 15.3409C45 15.3712 45.2462 15.4129 45.4584 15.4659V19.7614C45.2311 19.6932 44.9167 19.6326 44.5152 19.5795C44.1137 19.5265 43.7462 19.5 43.4129 19.5C42.7008 19.5 42.0644 19.6553 41.5038 19.9659C40.9508 20.2689 40.5114 20.6932 40.1856 21.2386C39.8674 21.7841 39.7084 22.4129 39.7084 23.125V33H34.8674ZM54.4632 33.3409C52.6678 33.3409 51.1223 32.9773 49.8269 32.25C48.539 31.5152 47.5466 30.4773 46.8496 29.1364C46.1526 27.7879 45.8041 26.1932 45.8041 24.3523C45.8041 22.5568 46.1526 20.9811 46.8496 19.625C47.5466 18.2689 48.5276 17.2121 49.7928 16.4545C51.0655 15.697 52.5579 15.3182 54.2701 15.3182C55.4216 15.3182 56.4935 15.5038 57.486 15.875C58.486 16.2386 59.3572 16.7879 60.0996 17.5227C60.8496 18.2576 61.4329 19.1818 61.8496 20.2955C62.2663 21.4015 62.4746 22.697 62.4746 24.1818V25.5114H47.736V22.5114H57.9178C57.9178 21.8144 57.7663 21.197 57.4632 20.6591C57.1602 20.1212 56.7398 19.7008 56.2019 19.3977C55.6716 19.0871 55.0541 18.9318 54.3496 18.9318C53.6148 18.9318 52.9632 19.1023 52.3951 19.4432C51.8344 19.7765 51.3951 20.2273 51.0769 20.7955C50.7587 21.3561 50.5958 21.9811 50.5882 22.6705V25.5227C50.5882 26.3864 50.7473 27.1326 51.0655 27.7614C51.3913 28.3902 51.8496 28.875 52.4405 29.2159C53.0314 29.5568 53.7322 29.7273 54.5428 29.7273C55.0807 29.7273 55.5731 29.6515 56.0201 29.5C56.467 29.3485 56.8496 29.1212 57.1678 28.8182C57.486 28.5152 57.7284 28.1439 57.8951 27.7045L62.3723 28C62.1451 29.0758 61.6791 30.0152 60.9746 30.8182C60.2776 31.6136 59.3761 32.2348 58.2701 32.6818C57.1716 33.1212 55.9026 33.3409 54.4632 33.3409ZM80.7977 15.5455L74.6954 33H69.2409L63.1386 15.5455H68.2522L71.8772 28.0341H72.059L75.6727 15.5455H80.7977ZM90.027 33.3409C88.2315 33.3409 86.6861 32.9773 85.3906 32.25C84.1027 31.5152 83.1103 30.4773 82.4134 29.1364C81.7164 27.7879 81.3679 26.1932 81.3679 24.3523C81.3679 22.5568 81.7164 20.9811 82.4134 19.625C83.1103 18.2689 84.0914 17.2121 85.3565 16.4545C86.6293 15.697 88.1217 15.3182 89.8338 15.3182C90.9853 15.3182 92.0573 15.5038 93.0497 15.875C94.0497 16.2386 94.9209 16.7879 95.6634 17.5227C96.4134 18.2576 96.9967 19.1818 97.4134 20.2955C97.83 21.4015 98.0384 22.697 98.0384 24.1818V25.5114H83.2997V22.5114H93.4815C93.4815 21.8144 93.33 21.197 93.027 20.6591C92.724 20.1212 92.3035 19.7008 91.7656 19.3977C91.2353 19.0871 90.6179 18.9318 89.9134 18.9318C89.1785 18.9318 88.527 19.1023 87.9588 19.4432C87.3982 19.7765 86.9588 20.2273 86.6406 20.7955C86.3224 21.3561 86.1596 21.9811 86.152 22.6705V25.5227C86.152 26.3864 86.3111 27.1326 86.6293 27.7614C86.955 28.3902 87.4134 28.875 88.0043 29.2159C88.5952 29.5568 89.2959 29.7273 90.1065 29.7273C90.6444 29.7273 91.1368 29.6515 91.5838 29.5C92.0308 29.3485 92.4134 29.1212 92.7315 28.8182C93.0497 28.5152 93.2921 28.1439 93.4588 27.7045L97.9361 28C97.7088 29.0758 97.2429 30.0152 96.5384 30.8182C95.8414 31.6136 94.9399 32.2348 93.8338 32.6818C92.7353 33.1212 91.4664 33.3409 90.027 33.3409ZM105.398 22.9091V33H100.557V15.5455H105.171V18.625H105.376C105.762 17.6098 106.41 16.8068 107.319 16.2159C108.228 15.6174 109.33 15.3182 110.626 15.3182C111.838 15.3182 112.895 15.5833 113.796 16.1136C114.698 16.6439 115.398 17.4015 115.898 18.3864C116.398 19.3636 116.648 20.5303 116.648 21.8864V33H111.807V22.75C111.815 21.6818 111.542 20.8485 110.989 20.25C110.436 19.6439 109.675 19.3409 108.705 19.3409C108.054 19.3409 107.478 19.4811 106.978 19.7614C106.485 20.0417 106.099 20.4508 105.819 20.9886C105.546 21.5189 105.406 22.1591 105.398 22.9091ZM129.108 15.5455V19.1818H118.596V15.5455H129.108ZM120.983 11.3636H125.824V27.6364C125.824 28.0833 125.892 28.4318 126.028 28.6818C126.165 28.9242 126.354 29.0947 126.596 29.1932C126.846 29.2917 127.134 29.3409 127.46 29.3409C127.687 29.3409 127.915 29.322 128.142 29.2841C128.369 29.2386 128.543 29.2045 128.665 29.1818L129.426 32.7841C129.184 32.8598 128.843 32.947 128.403 33.0455C127.964 33.1515 127.43 33.2159 126.801 33.2386C125.634 33.2841 124.612 33.1288 123.733 32.7727C122.862 32.4167 122.184 31.8636 121.699 31.1136C121.214 30.3636 120.975 29.4167 120.983 28.2727V11.3636ZM131.621 33V15.5455H136.462V33H131.621ZM134.053 13.2955C133.333 13.2955 132.716 13.0568 132.201 12.5795C131.693 12.0947 131.439 11.5152 131.439 10.8409C131.439 10.1742 131.693 9.60227 132.201 9.125C132.716 8.64015 133.333 8.39773 134.053 8.39773C134.773 8.39773 135.386 8.64015 135.894 9.125C136.409 9.60227 136.667 10.1742 136.667 10.8409C136.667 11.5152 136.409 12.0947 135.894 12.5795C135.386 13.0568 134.773 13.2955 134.053 13.2955ZM143.745 15.5455L146.95 21.6477L150.234 15.5455H155.2L150.143 24.2727L155.336 33H150.393L146.95 26.9659L143.564 33H138.564L143.745 24.2727L138.745 15.5455H143.745Z" fill="#EEEEEE"/>
<line x1="1.5" y1="11" x2="1.5" y2="41" stroke="white" stroke-width="3"/>
<line y1="40.5" x2="30" y2="40.5" stroke="white" stroke-width="3"/>
<line x1="167.654" y1="31.0071" x2="167.505" y2="1.0075" stroke="white" stroke-width="3"/>
<line x1="169.007" y1="1.49998" x2="139.008" y2="1.64988" stroke="white" stroke-width="3"/>
</svg>
